<svg width="138" height="50" viewBox="0 0 138 50" fill="none" xmlns="http://www.w3.org/2000/svg">
<path d="M8 0.5H130C134.142 0.5 137.5 3.85786 137.5 8V42C137.5 46.1421 134.142 49.5 130 49.5H8C3.85786 49.5 0.5 46.1421 0.5 42V8C0.500001 3.85787 3.85787 0.5 8 0.5Z" fill="black"/>
<path d="M8 0.5H130C134.142 0.5 137.5 3.85786 137.5 8V42C137.5 46.1421 134.142 49.5 130 49.5H8C3.85786 49.5 0.5 46.1421 0.5 42V8C0.500001 3.85787 3.85787 0.5 8 0.5Z" stroke="#A6A6A6"/>
<path d="M32.7045 25.7631C32.7166 24.8432 32.9669 23.9412 33.4321 23.1411C33.8972 22.341 34.5621 21.6688 35.3648 21.187C34.8548 20.4759 34.1821 19.8908 33.4 19.478C32.6178 19.0652 31.7479 18.8361 30.8592 18.809C28.9635 18.6147 27.1258 19.9164 26.1598 19.9164C25.1751 19.9164 23.6878 18.8282 22.0862 18.8604C21.0502 18.8931 20.0406 19.1872 19.1557 19.7141C18.2708 20.241 17.5407 20.9826 17.0367 21.8669C14.8535 25.5573 16.482 30.9809 18.5734 33.964C19.6197 35.4247 20.8426 37.0563 22.4428 36.9985C24.0086 36.9351 24.5934 36.0237 26.4835 36.0237C28.3561 36.0237 28.9048 36.9985 30.5374 36.9617C32.2176 36.9351 33.2762 35.4945 34.2859 34.0199C35.0377 32.9791 35.6162 31.8288 36 30.6116C35.0238 30.2085 34.1908 29.5338 33.6048 28.6716C33.0187 27.8094 32.7056 26.7979 32.7045 25.7631Z" fill="white"/>
<path d="M29.621 16.8471C30.5372 15.7734 30.9885 14.3934 30.8792 13C29.4796 13.1435 28.1867 13.7966 27.2582 14.8291C26.8043 15.3335 26.4566 15.9203 26.235 16.556C26.0135 17.1917 25.9224 17.8638 25.9671 18.5338C26.6672 18.5408 27.3597 18.3927 27.9927 18.1005C28.6256 17.8084 29.1824 17.3798 29.621 16.8471Z" fill="white"/>
<path d="M44.791 13.5015H46.8608C48.6494 13.5015 49.5195 14.5649 49.5195 16.4941C49.5195 18.4233 48.6406 19.5 46.8608 19.5H44.791V13.5015ZM45.7886 14.3408V18.6606H46.751C47.9375 18.6606 48.4956 17.9443 48.4956 16.5073C48.4956 15.0615 47.9331 14.3408 46.751 14.3408H45.7886ZM52.6748 14.7759C53.8877 14.7759 54.7358 15.5625 54.7358 16.8677V17.4697C54.7358 18.8188 53.8877 19.5791 52.6748 19.5791C51.4443 19.5791 50.605 18.8276 50.605 17.4741V16.8721C50.605 15.6021 51.4575 14.7759 52.6748 14.7759ZM52.6792 15.5625C51.9849 15.5625 51.5894 16.1426 51.5894 16.9204V17.439C51.5894 18.2168 51.9585 18.7925 52.6792 18.7925C53.3911 18.7925 53.7559 18.2212 53.7559 17.439V16.9204C53.7559 16.1426 53.3735 15.5625 52.6792 15.5625ZM61.8989 14.855L60.6772 19.5H59.6841L58.7129 16.0723H58.6865L57.7329 19.5H56.7354L55.4609 14.855H56.5112L57.2583 18.397H57.3022L58.2383 14.855H59.1567L60.1191 18.397H60.1631L60.9233 14.855H61.8989ZM62.8657 19.5V14.855H63.8237V15.6899H63.8721C63.9907 15.3252 64.3291 14.7847 65.2695 14.7847C66.2056 14.7847 66.834 15.3032 66.834 16.3623V19.5H65.8584V16.6479C65.8584 15.9404 65.4893 15.6152 64.9399 15.6152C64.2192 15.6152 63.8413 16.1689 63.8413 16.9204V19.5H62.8657ZM68.3105 19.5V13.1851H69.2861V19.5H68.3105ZM72.6348 14.7759C73.8477 14.7759 74.6958 15.5625 74.6958 16.8677V17.4697C74.6958 18.8188 73.8477 19.5791 72.6348 19.5791C71.4043 19.5791 70.5649 18.8276 70.5649 17.4741V16.8721C70.5649 15.6021 71.4175 14.7759 72.6348 14.7759ZM72.6392 15.5625C71.9448 15.5625 71.5493 16.1426 71.5493 16.9204V17.439C71.5493 18.2168 71.9185 18.7925 72.6392 18.7925C73.3511 18.7925 73.7158 18.2212 73.7158 17.439V16.9204C73.7158 16.1426 73.3335 15.5625 72.6392 15.5625ZM77.2227 19.5703C76.3218 19.5703 75.7021 19.0166 75.7021 18.1509C75.7021 17.3291 76.2734 16.7754 77.3457 16.7754H78.519V16.3403C78.519 15.8086 78.1807 15.5581 77.6445 15.5581C77.1172 15.5581 76.8799 15.7778 76.8052 16.0854H75.8779C75.9351 15.3076 76.5195 14.7847 77.6753 14.7847C78.6685 14.7847 79.4902 15.1978 79.4902 16.3535V19.5H78.563V18.8979H78.519C78.3125 19.2539 77.9082 19.5703 77.2227 19.5703ZM77.5259 18.8145C78.0796 18.8145 78.519 18.4365 78.519 17.9312V17.4302H77.4995C76.9326 17.4302 76.6821 17.7158 76.6821 18.1025C76.6821 18.5859 77.0864 18.8145 77.5259 18.8145ZM82.4961 14.7935C83.1509 14.7935 83.6519 15.0835 83.832 15.5537H83.8804V13.1851H84.856V19.5H83.9067V18.7573H83.8584C83.7178 19.2275 83.1597 19.5615 82.4829 19.5615C81.415 19.5615 80.7207 18.8013 80.7207 17.5752V16.7798C80.7207 15.5537 81.4282 14.7935 82.4961 14.7935ZM82.7686 15.5933C82.1182 15.5933 81.7139 16.0767 81.7139 16.9204V17.4302C81.7139 18.2783 82.1226 18.7617 82.7905 18.7617C83.4497 18.7617 83.8804 18.2827 83.8804 17.4917V16.7886C83.8804 16.0723 83.4102 15.5933 82.7686 15.5933ZM90.2129 14.7759C91.4258 14.7759 92.2739 15.5625 92.2739 16.8677V17.4697C92.2739 18.8188 91.4258 19.5791 90.2129 19.5791C88.9824 19.5791 88.1431 18.8276 88.1431 17.4741V16.8721C88.1431 15.6021 88.9956 14.7759 90.2129 14.7759ZM90.2173 15.5625C89.5229 15.5625 89.1274 16.1426 89.1274 16.9204V17.439C89.1274 18.2168 89.4966 18.7925 90.2173 18.7925C90.9292 18.7925 91.2939 18.2212 91.2939 17.439V16.9204C91.2939 16.1426 90.9116 15.5625 90.2173 15.5625ZM93.5308 19.5V14.855H94.4888V15.6899H94.5371C94.6558 15.3252 94.9941 14.7847 95.9346 14.7847C96.8706 14.7847 97.499 15.3032 97.499 16.3623V19.5H96.5234V16.6479C96.5234 15.9404 96.1543 15.6152 95.605 15.6152C94.8843 15.6152 94.5063 16.1689 94.5063 16.9204V19.5H93.5308ZM101.274 14.8857V13.7256H102.228V14.8857H103.269V15.6504H102.228V18.1157C102.228 18.6211 102.417 18.7617 102.939 18.7617C103.071 18.7617 103.247 18.7529 103.322 18.7441V19.4912C103.243 19.5044 102.917 19.5308 102.698 19.5308C101.568 19.5308 101.261 19.1265 101.261 18.1948V15.6504H100.553V14.8857H101.274ZM104.5 19.5V13.1851H105.471V15.6899H105.519C105.62 15.3604 105.998 14.7847 106.93 14.7847C107.835 14.7847 108.481 15.3076 108.481 16.3667V19.5H107.51V16.6523C107.51 15.9448 107.119 15.6152 106.565 15.6152C105.866 15.6152 105.471 16.1646 105.471 16.9204V19.5H104.5ZM111.755 19.5791C110.489 19.5791 109.703 18.8013 109.703 17.4917V16.8633C109.703 15.5449 110.564 14.7759 111.698 14.7759C112.862 14.7759 113.684 15.5845 113.684 16.8633V17.4082H110.669V17.6367C110.669 18.3047 111.065 18.7969 111.75 18.7969C112.26 18.7969 112.612 18.5552 112.678 18.2651H113.631C113.574 18.8013 113.007 19.5791 111.755 19.5791ZM110.669 16.771H112.73V16.7095C112.73 16.0107 112.322 15.5449 111.702 15.5449C111.083 15.5449 110.669 16.0107 110.669 16.7095V16.771Z" fill="white"/>
<path d="M46.2061 35.5H44.1758L48.3066 23.5029H50.5391L54.6611 35.5H52.5518L51.4883 32.1777H47.2783L46.2061 35.5ZM49.4316 25.5771H49.3525L47.7266 30.6484H51.04L49.4316 25.5771ZM60.2644 35.6318C59.0603 35.6318 58.1462 35.0605 57.654 34.208H57.5837V38.585H55.6325V26.21H57.531V27.5723H57.6013C58.1111 26.6846 59.0603 26.0869 60.3083 26.0869C62.3913 26.0869 63.8767 27.6602 63.8767 30.4375V31.2637C63.8767 34.0234 62.4089 35.6318 60.2644 35.6318ZM59.8161 34.0234C61.0554 34.0234 61.8991 33.0303 61.8991 31.1582V30.5078C61.8991 28.7061 61.1081 27.6777 59.781 27.6777C58.4187 27.6777 57.5661 28.7852 57.5661 30.499V31.1582C57.5661 32.916 58.4275 34.0234 59.8161 34.0234ZM70.183 35.6318C68.9789 35.6318 68.0649 35.0605 67.5727 34.208H67.5024V38.585H65.5512V26.21H67.4496V27.5723H67.52C68.0297 26.6846 68.9789 26.0869 70.227 26.0869C72.31 26.0869 73.7954 27.6602 73.7954 30.4375V31.2637C73.7954 34.0234 72.3276 35.6318 70.183 35.6318ZM69.7348 34.0234C70.9741 34.0234 71.8178 33.0303 71.8178 31.1582V30.5078C71.8178 28.7061 71.0268 27.6777 69.6996 27.6777C68.3373 27.6777 67.4848 28.7852 67.4848 30.499V31.1582C67.4848 32.916 68.3461 34.0234 69.7348 34.0234ZM77.8387 32.1689H79.7899C79.8778 33.2061 80.7919 34.0938 82.4882 34.0938C84.0438 34.0938 84.9667 33.3643 84.9667 32.2305C84.9667 31.3164 84.3514 30.8242 83.0682 30.5166L81.0995 30.0244C79.5526 29.6641 78.1639 28.7412 78.1639 26.79C78.1639 24.4961 80.1679 23.2393 82.497 23.2393C84.8261 23.2393 86.7684 24.4961 86.8124 26.7373H84.8964C84.8085 25.7178 84.0262 24.874 82.4706 24.874C81.0995 24.874 80.1679 25.5244 80.1679 26.6406C80.1679 27.4229 80.7128 27.9854 81.829 28.2402L83.7889 28.7236C85.5907 29.1631 86.9618 30.0156 86.9618 32.0547C86.9618 34.4102 85.0546 35.7373 82.3387 35.7373C78.9989 35.7373 77.8827 33.7861 77.8387 32.1689ZM89.3395 26.21V23.9512H91.2555V26.21H93.066V27.7744H91.2555V32.7314C91.2555 33.7422 91.6334 34.0234 92.6793 34.0234C92.8463 34.0234 93.0045 34.0234 93.1188 34.0059V35.5C92.9605 35.5264 92.5914 35.5615 92.1959 35.5615C89.9371 35.5615 89.3131 34.7529 89.3131 32.8896V27.7744H88.0299V26.21H89.3395ZM98.3353 26.0518C101.007 26.0518 102.457 27.9326 102.457 30.4639V31.2109C102.457 33.8301 101.016 35.6582 98.3353 35.6582C95.6546 35.6582 94.1956 33.8301 94.1956 31.2109V30.4639C94.1956 27.9414 95.6634 26.0518 98.3353 26.0518ZM98.3353 27.6162C96.8851 27.6162 96.1644 28.8027 96.1644 30.4902V31.2021C96.1644 32.8633 96.8763 34.085 98.3353 34.085C99.7943 34.085 100.497 32.8721 100.497 31.2021V30.4902C100.497 28.7939 99.7855 27.6162 98.3353 27.6162ZM104.106 35.5V26.21H106.057V27.4316H106.127C106.364 26.8516 107.059 26.0781 108.351 26.0781C108.606 26.0781 108.825 26.0957 109.01 26.1309V27.8535C108.843 27.8096 108.5 27.7832 108.175 27.7832C106.61 27.7832 106.083 28.75 106.083 29.998V35.5H104.106ZM113.743 35.6582C111.256 35.6582 109.674 34.0146 109.674 31.2637V30.3232C109.674 27.7305 111.22 26.0518 113.664 26.0518C116.142 26.0518 117.636 27.792 117.636 30.4111V31.2988H111.598V31.5186C111.598 33.083 112.442 34.1201 113.769 34.1201C114.762 34.1201 115.439 33.6279 115.677 32.8281H117.531C117.25 34.3311 116.037 35.6582 113.743 35.6582ZM111.598 29.9365H115.729V29.9189C115.729 28.6006 114.912 27.5635 113.673 27.5635C112.416 27.5635 111.598 28.6006 111.598 29.9189V29.9365Z" fill="white"/>
</svg>
