<svg width="138" height="50" viewBox="0 0 138 50" fill="none" xmlns="http://www.w3.org/2000/svg">
<rect x="0.5" y="0.5" width="137" height="49" rx="5.5" fill="black"/>
<rect x="0.5" y="0.5" width="137" height="49" rx="5.5" stroke="#A6A6A6"/>
<path d="M27.8051 24.4617L18.0898 35.0059C18.0908 35.0078 18.0908 35.0106 18.0917 35.0125C18.3901 36.1574 19.412 37 20.6256 37C21.1111 37 21.5664 36.8656 21.957 36.6305L21.988 36.6118L32.9232 30.1593L27.8051 24.4617Z" fill="#EA4335"/>
<path d="M37.6332 22.6662L37.624 22.6597L32.9029 19.8612L27.584 24.7013L32.922 30.1582L37.6177 27.3878C38.4407 26.9324 39.0001 26.045 39.0001 25.0223C39.0001 24.0052 38.4489 23.1225 37.6332 22.6662Z" fill="#FBBC04"/>
<path d="M18.0894 14.9934C18.031 15.2136 18 15.445 18 15.6839V34.3164C18 34.5553 18.031 34.7867 18.0903 35.006L28.1386 24.7314L18.0894 14.9934Z" fill="#4285F4"/>
<path d="M27.8762 24.9999L32.904 19.8593L21.9815 13.3835C21.5846 13.1399 21.1211 13 20.6256 13C19.412 13 18.3882 13.8444 18.0898 14.9903C18.0898 14.9912 18.0889 14.9922 18.0889 14.9931L27.8762 24.9999Z" fill="#34A853"/>
<path d="M53.61 16.71C53.61 17.71 53.3133 18.5067 52.72 19.1C52.0533 19.8067 51.1767 20.16 50.09 20.16C49.05 20.16 48.17 19.8 47.45 19.08C46.73 18.36 46.37 17.4733 46.37 16.42C46.37 15.3667 46.73 14.48 47.45 13.76C48.17 13.04 49.05 12.68 50.09 12.68C50.6167 12.68 51.1133 12.7733 51.58 12.96C52.0467 13.1467 52.43 13.41 52.73 13.75L52.07 14.41C51.85 14.1433 51.5633 13.9367 51.21 13.79C50.8633 13.6367 50.49 13.56 50.09 13.56C49.31 13.56 48.65 13.83 48.11 14.37C47.5767 14.9167 47.31 15.6 47.31 16.42C47.31 17.24 47.5767 17.9233 48.11 18.47C48.65 19.01 49.31 19.28 50.09 19.28C50.8033 19.28 51.3967 19.08 51.87 18.68C52.3433 18.28 52.6167 17.73 52.69 17.03H50.09V16.17H53.56C53.5933 16.3567 53.61 16.5367 53.61 16.71ZM58.9078 12.84V13.72H55.6478V15.99H58.5878V16.85H55.6478V19.12H58.9078V20H54.7278V12.84H58.9078ZM62.5877 13.72V20H61.6677V13.72H59.6677V12.84H64.5877V13.72H62.5877ZM68.6654 20H67.7454V12.84H68.6654V20ZM72.5487 13.72V20H71.6287V13.72H69.6287V12.84H74.5487V13.72H72.5487ZM84.521 16.42C84.521 17.48 84.1677 18.3667 83.461 19.08C82.7477 19.8 81.8743 20.16 80.841 20.16C79.801 20.16 78.9277 19.8 78.221 19.08C77.5143 18.3667 77.161 17.48 77.161 16.42C77.161 15.36 77.5143 14.4733 78.221 13.76C78.9277 13.04 79.801 12.68 80.841 12.68C81.881 12.68 82.7543 13.0433 83.461 13.77C84.1677 14.4833 84.521 15.3667 84.521 16.42ZM78.101 16.42C78.101 17.2467 78.361 17.93 78.881 18.47C79.4077 19.01 80.061 19.28 80.841 19.28C81.621 19.28 82.271 19.01 82.791 18.47C83.3177 17.9367 83.581 17.2533 83.581 16.42C83.581 15.5867 83.3177 14.9033 82.791 14.37C82.271 13.83 81.621 13.56 80.841 13.56C80.061 13.56 79.4077 13.83 78.881 14.37C78.361 14.91 78.101 15.5933 78.101 16.42ZM86.5267 20H85.6067V12.84H86.7267L90.2067 18.41H90.2467L90.2067 17.03V12.84H91.1267V20H90.1667L86.5267 14.16H86.4867L86.5267 15.54V20Z" fill="white"/>
<path d="M103.518 36.4097H105.147V25.3981H103.518V36.4097ZM118.189 29.3646L116.322 34.1388H116.266L114.328 29.3646H112.573L115.479 36.0371L113.823 39.749H115.521L120 29.3646H118.189ZM108.952 35.1588C108.418 35.1588 107.674 34.8902 107.674 34.2234C107.674 33.3742 108.6 33.0483 109.401 33.0483C110.116 33.0483 110.454 33.2042 110.889 33.4165C110.762 34.4365 109.892 35.1588 108.952 35.1588ZM109.148 29.1241C107.969 29.1241 106.747 29.6482 106.242 30.8101L107.688 31.4188C107.997 30.8101 108.572 30.611 109.176 30.611C110.019 30.611 110.875 31.121 110.889 32.0283V32.1411C110.594 31.971 109.963 31.7165 109.19 31.7165C107.632 31.7165 106.045 32.5806 106.045 34.1952C106.045 35.6689 107.323 36.6184 108.755 36.6184C109.85 36.6184 110.454 36.1225 110.833 35.5411H110.889V36.3912H112.461V32.1692C112.461 30.2146 111.015 29.1241 109.148 29.1241ZM99.0821 30.7053H96.7655V26.9308H99.0821C100.3 26.9308 100.991 27.9482 100.991 28.8176C100.991 29.6711 100.3 30.7053 99.0821 30.7053ZM99.0402 25.3981H95.1375V36.4097H96.7655V32.2379H99.0402C100.845 32.2379 102.62 30.9184 102.62 28.8176C102.62 26.7168 100.845 25.3981 99.0402 25.3981ZM77.7583 35.1606C76.6332 35.1606 75.6913 34.2102 75.6913 32.9047C75.6913 31.5852 76.6332 30.6198 77.7583 30.6198C78.8695 30.6198 79.7406 31.5852 79.7406 32.9047C79.7406 34.2102 78.8695 35.1606 77.7583 35.1606ZM79.6289 29.9812H79.5722C79.2064 29.5417 78.5038 29.1444 77.6178 29.1444C75.7611 29.1444 74.0599 30.7898 74.0599 32.9047C74.0599 35.0047 75.7611 36.6369 77.6178 36.6369C78.5038 36.6369 79.2064 36.2396 79.5722 35.7851H79.6289V36.3251C79.6289 37.7582 78.8695 38.5246 77.6457 38.5246C76.6471 38.5246 76.0282 37.8005 75.7751 37.1901L74.3549 37.7864C74.7626 38.78 75.8458 40 77.6457 40C79.5582 40 81.1757 38.8646 81.1757 36.0978V29.3708H79.6289V29.9812ZM82.3008 36.4097H83.9323V25.3973H82.3008V36.4097ZM86.3362 32.777C86.2943 31.3298 87.4474 30.5916 88.2766 30.5916C88.9243 30.5916 89.4725 30.9176 89.6549 31.3862L86.3362 32.777ZM91.3989 31.528C91.0899 30.6912 90.1472 29.1444 88.2208 29.1444C86.3083 29.1444 84.7196 30.6621 84.7196 32.8907C84.7196 34.9906 86.2943 36.6369 88.4032 36.6369C90.1053 36.6369 91.0899 35.5869 91.4976 34.9765L90.2319 34.1247C89.8103 34.7493 89.2333 35.1606 88.4032 35.1606C87.5739 35.1606 86.983 34.7774 86.6033 34.0261L91.5674 31.9534L91.3989 31.528ZM51.8501 30.2939V31.883H55.6184C55.5058 32.777 55.2107 33.4297 54.7612 33.8834C54.2121 34.4374 53.3541 35.0479 51.8501 35.0479C49.5291 35.0479 47.7152 33.1602 47.7152 30.8189C47.7152 28.4767 49.5291 26.5899 51.8501 26.5899C53.1018 26.5899 54.0157 27.0867 54.6905 27.7254L55.8017 26.604C54.8589 25.6959 53.6081 25 51.8501 25C48.6719 25 46 27.6117 46 30.8189C46 34.0261 48.6719 36.6369 51.8501 36.6369C53.5653 36.6369 54.8589 36.0688 55.8715 35.0047C56.9129 33.9547 57.2358 32.4793 57.2358 31.2866C57.2358 30.9176 57.2079 30.5775 57.1512 30.2939H51.8501ZM61.5208 35.1606C60.3957 35.1606 59.425 34.2243 59.425 32.8907C59.425 31.5421 60.3957 30.6198 61.5208 30.6198C62.6451 30.6198 63.6158 31.5421 63.6158 32.8907C63.6158 34.2243 62.6451 35.1606 61.5208 35.1606ZM61.5208 29.1444C59.4669 29.1444 57.7936 30.7194 57.7936 32.8907C57.7936 35.0479 59.4669 36.6369 61.5208 36.6369C63.5739 36.6369 65.2472 35.0479 65.2472 32.8907C65.2472 30.7194 63.5739 29.1444 61.5208 29.1444ZM69.65 35.1606C68.5249 35.1606 67.5542 34.2243 67.5542 32.8907C67.5542 31.5421 68.5249 30.6198 69.65 30.6198C70.7752 30.6198 71.745 31.5421 71.745 32.8907C71.745 34.2243 70.7752 35.1606 69.65 35.1606ZM69.65 29.1444C67.597 29.1444 65.9237 30.7194 65.9237 32.8907C65.9237 35.0479 67.597 36.6369 69.65 36.6369C71.7031 36.6369 73.3764 35.0479 73.3764 32.8907C73.3764 30.7194 71.7031 29.1444 69.65 29.1444Z" fill="white"/>
</svg>
